<svg width="1600" height="900" viewBox="0 0 1600 900" fill="none" xmlns="http://www.w3.org/2000/svg" role="img" aria-labelledby="title desc">
  <title id="title">March CLI banner</title>
  <desc id="desc">A lightweight Notion-like March CLI product banner with a clean terminal panel and memory cards.</desc>
  <defs>
    <filter id="softShadow" x="-20%" y="-20%" width="140%" height="140%" color-interpolation-filters="sRGB">
      <feDropShadow dx="0" dy="20" stdDeviation="28" flood-color="#0f172a" flood-opacity="0.08"/>
    </filter>
    <linearGradient id="panel" x1="360" y1="230" x2="1240" y2="690" gradientUnits="userSpaceOnUse">
      <stop stop-color="#ffffff"/>
      <stop offset="1" stop-color="#fbfbf8"/>
    </linearGradient>
    <linearGradient id="accent" x1="524" y1="306" x2="1052" y2="566" gradientUnits="userSpaceOnUse">
      <stop stop-color="#2563eb"/>
      <stop offset="1" stop-color="#0f766e"/>
    </linearGradient>
    <pattern id="grid" width="32" height="32" patternUnits="userSpaceOnUse">
      <path d="M32 0H0V32" stroke="#e8e5dc" stroke-width="1" opacity="0.5"/>
    </pattern>
    <style>
      .serif { font-family: ui-serif, Georgia, Cambria, 'Times New Roman', serif; }
      .sans { font-family: Inter, ui-sans-serif, system-ui, -apple-system, BlinkMacSystemFont, 'Segoe UI', sans-serif; }
      .mono { font-family: 'SFMono-Regular', Consolas, 'Liberation Mono', Menlo, monospace; }
      .muted { fill: #6b6f76; }
      .ink { fill: #1f2328; }
      .line { stroke: #e5e1d8; }
      .blue { fill: #2563eb; }
      .green { fill: #0f766e; }
    </style>
  </defs>

  <rect width="1600" height="900" fill="#fbfaf7"/>
  <rect width="1600" height="900" fill="url(#grid)" opacity="0.55"/>

  <g opacity="0.95">
    <circle cx="316" cy="260" r="3" fill="#c8c2b6"/>
    <circle cx="1284" cy="264" r="3" fill="#c8c2b6"/>
    <circle cx="300" cy="648" r="3" fill="#c8c2b6"/>
    <circle cx="1300" cy="648" r="3" fill="#c8c2b6"/>
    <path d="M316 260C436 324 466 406 548 442" stroke="#dfdacf" stroke-width="1.5" stroke-dasharray="5 8"/>
    <path d="M1284 264C1165 322 1138 412 1052 452" stroke="#dfdacf" stroke-width="1.5" stroke-dasharray="5 8"/>
    <path d="M300 648C414 590 452 516 548 494" stroke="#dfdacf" stroke-width="1.5" stroke-dasharray="5 8"/>
    <path d="M1300 648C1186 590 1148 516 1052 494" stroke="#dfdacf" stroke-width="1.5" stroke-dasharray="5 8"/>
  </g>

  <g transform="translate(0 8)">
    <text x="800" y="144" text-anchor="middle" class="serif ink" font-size="88" letter-spacing="8">March</text>
    <text x="800" y="194" text-anchor="middle" class="sans muted" font-size="25" letter-spacing="0.8">Forget Skills. Embrace Memory. Keep context light.</text>
  </g>

  <g filter="url(#softShadow)">
    <rect x="354" y="248" width="892" height="416" rx="22" fill="url(#panel)" stroke="#ded8cc" stroke-width="1.5"/>
    <rect x="354" y="248" width="892" height="64" rx="22" fill="#f4f2ed"/>
    <path d="M354 312H1246" stroke="#e2ddd3"/>
    <circle cx="390" cy="280" r="8" fill="#ff6b5f"/>
    <circle cx="418" cy="280" r="8" fill="#f4bf4f"/>
    <circle cx="446" cy="280" r="8" fill="#67c168"/>
    <text x="496" y="287" class="mono ink" font-size="20">~ march</text>
    <rect x="1076" y="266" width="128" height="28" rx="14" fill="#ffffff" stroke="#ded8cc"/>
    <circle cx="1098" cy="280" r="5" fill="#0f766e"/>
    <text x="1112" y="286" class="sans muted" font-size="13">AI coding agent</text>

    <text x="414" y="374" class="mono ink" font-size="22">› march run </text>
    <text x="570" y="374" class="mono blue" font-size="22">"refactor memory recall"</text>

    <g class="mono" font-size="18">
      <text x="430" y="426" fill="#0f766e">✓</text><text x="462" y="426" class="muted">Reading project context</text>
      <text x="430" y="462" fill="#0f766e">✓</text><text x="462" y="462" class="muted">Recalling relevant memories</text>
      <text x="430" y="498" fill="#0f766e">✓</text><text x="462" y="498" class="muted">Planning small focused changes</text>
      <text x="430" y="534" fill="#0f766e">✓</text><text x="462" y="534" class="muted">Editing files and running tests</text>
    </g>

    <g transform="translate(766 404)">
      <rect x="0" y="0" width="392" height="152" rx="16" fill="#ffffff" stroke="#e4dfd5"/>
      <text x="24" y="38" class="sans ink" font-size="17" font-weight="600">Context after each turn</text>
      <text x="24" y="74" class="mono muted" font-size="16">question + final answer</text>
      <rect x="24" y="100" width="142" height="12" rx="6" fill="#dbeafe"/>
      <rect x="176" y="100" width="72" height="12" rx="6" fill="#d1fae5"/>
      <rect x="258" y="100" width="92" height="12" rx="6" fill="#f1f5f9"/>
      <text x="24" y="134" class="sans muted" font-size="14">~8K clean context, no rot</text>
    </g>

    <path d="M354 602H1246" stroke="#e2ddd3"/>
    <circle cx="392" cy="632" r="6" fill="#2563eb"/>
    <text x="414" y="638" class="mono muted" font-size="16">workspace: march-cli</text>
    <text x="1038" y="638" class="mono muted" font-size="16">memories on demand</text>
    <circle cx="1210" cy="632" r="6" fill="#0f766e"/>
  </g>

  <g filter="url(#softShadow)">
    <g transform="translate(124 330)">
      <rect width="214" height="136" rx="18" fill="#ffffff" stroke="#e4dfd5"/>
      <text x="22" y="36" class="sans muted" font-size="13">Memory</text>
      <text x="22" y="72" class="serif ink" font-size="23">Project rules</text>
      <text x="22" y="104" class="sans muted" font-size="14">recalled when relevant</text>
      <circle cx="184" cy="34" r="5" fill="#2563eb"/>
    </g>
    <g transform="translate(1264 330)">
      <rect width="214" height="136" rx="18" fill="#ffffff" stroke="#e4dfd5"/>
      <text x="22" y="36" class="sans muted" font-size="13">Memory</text>
      <text x="22" y="72" class="serif ink" font-size="23">Design taste</text>
      <text x="22" y="104" class="sans muted" font-size="14">preferences persist</text>
      <circle cx="184" cy="34" r="5" fill="#0f766e"/>
    </g>
    <g transform="translate(182 558)">
      <rect width="244" height="126" rx="18" fill="#ffffff" stroke="#e4dfd5"/>
      <text x="22" y="36" class="sans muted" font-size="13">Provider</text>
      <text x="22" y="72" class="serif ink" font-size="23">OpenAI-compatible</text>
      <text x="22" y="102" class="sans muted" font-size="14">local or cloud models</text>
    </g>
    <g transform="translate(1174 558)">
      <rect width="244" height="126" rx="18" fill="#ffffff" stroke="#e4dfd5"/>
      <text x="22" y="36" class="sans muted" font-size="13">Tools</text>
      <text x="22" y="72" class="serif ink" font-size="23">Search + image</text>
      <text x="22" y="102" class="sans muted" font-size="14">built into the agent</text>
    </g>
  </g>

  <g transform="translate(0 758)">
    <text x="800" y="0" text-anchor="middle" class="sans muted" font-size="22">Terminal-native coding agent with lightweight context and Markdown memory.</text>
    <rect x="618" y="34" width="172" height="42" rx="21" fill="#2563eb"/>
    <text x="704" y="61" text-anchor="middle" class="sans" font-size="16" fill="#ffffff" font-weight="600">npm install -g</text>
    <rect x="810" y="34" width="172" height="42" rx="21" fill="#ffffff" stroke="#ded8cc"/>
    <text x="896" y="61" text-anchor="middle" class="sans ink" font-size="16" font-weight="600">Read the docs</text>
  </g>
</svg>
